<?xml version="1.0" standalone="no"?>
<!DOCTYPE svg PUBLIC "-//W3C//DTD SVG 20010904//EN"
 "http://www.w3.org/TR/2001/REC-SVG-20010904/DTD/svg10.dtd">
<svg version="1.0" xmlns="http://www.w3.org/2000/svg"
 width="700.000000pt" height="700.000000pt" viewBox="0 0 700.000000 700.000000"
 preserveAspectRatio="xMidYMid meet">
<metadata>
Created by potrace 1.14, written by Peter Selinger 2001-2017
</metadata>
<g transform="translate(0.000000,700.000000) scale(0.100000,-0.100000)"
fill="#000000" stroke="none">
<path d="M2505 6989 c-11 -17 -13 -83 -3 -101 6 -14 21 -18 59 -18 42 0 51 3
58 23 11 30 4 89 -12 99 -18 12 -95 10 -102 -3z"/>
<path d="M4672 6988 c-7 -7 -12 -30 -12 -53 0 -23 -5 -46 -12 -53 -7 -7 -39
-12 -75 -12 -53 0 -63 -3 -64 -17 -1 -10 -2 -74 -4 -143 -1 -69 -3 -131 -3
-138 -2 -13 -105 -12 -119 1 -3 4 -7 32 -7 62 0 30 -3 55 -6 56 -3 1 -130 2
-283 3 -178 1 -277 -3 -278 -9 0 -5 -2 -31 -3 -57 -1 -26 -6 -51 -10 -55 -4
-4 -39 -8 -79 -10 -40 -1 -76 -2 -80 -2 -8 -1 1 -282 9 -290 3 -3 64 -6 137
-7 353 -6 457 -9 458 -14 0 -3 2 -29 4 -58 2 -30 6 -56 9 -59 3 -3 26 -6 50
-7 25 -1 50 -6 57 -13 6 -6 12 -35 13 -65 l2 -53 150 -1 149 0 3 -87 3 -86
-88 -3 -87 -3 -1 -123 c0 -72 4 -127 10 -130 6 -4 44 -7 85 -7 l75 0 5 -35 c3
-19 4 -88 2 -152 l-3 -118 -72 0 c-40 0 -78 -4 -85 -9 -7 -4 -14 -28 -16 -52
-1 -24 -5 -50 -10 -57 -9 -14 -102 -16 -111 -2 -3 5 -7 29 -9 54 -5 60 -10 66
-61 66 -58 0 -72 16 -71 79 2 48 1 51 -24 52 -14 0 -82 0 -152 -1 -127 -1
-128 -1 -129 22 0 13 -1 181 -2 373 l-2 350 -150 0 -150 0 -3 55 c-2 30 -7 59
-12 64 -6 6 -62 11 -125 11 -63 1 -117 4 -119 6 -2 2 -6 30 -10 62 -3 32 -10
66 -16 76 -9 19 -50 31 -100 31 -37 0 -53 23 -56 78 -1 26 -3 50 -3 53 -1 3
-20 4 -43 2 -24 -1 -117 -4 -206 -6 -126 -3 -166 -7 -173 -18 -11 -16 -4 -327
9 -379 l8 -35 129 -1 c72 -1 135 -2 140 -3 6 0 10 -29 10 -63 l0 -63 205 -2
c113 0 211 -1 218 -2 9 -1 12 -38 12 -151 0 -113 -3 -150 -12 -151 -39 -3
-123 2 -129 9 -4 4 -9 32 -11 62 l-3 55 -295 5 -295 5 1 52 c0 78 -8 93 -54
93 -60 0 -74 16 -76 91 l-2 64 -217 0 -217 0 -1 50 c-1 50 0 177 0 228 l1 27
215 0 c118 0 216 3 216 8 5 26 4 252 -1 253 -3 0 -29 2 -57 3 -29 1 -55 5 -59
8 -3 3 -7 32 -9 63 -2 31 -9 62 -14 69 -7 8 -32 13 -67 12 -58 -2 -73 -12 -75
-53 -1 -13 -3 -27 -4 -33 -1 -5 -3 -21 -4 -33 -1 -23 -3 -24 -113 -26 -62 -2
-149 -4 -193 -6 -44 -2 -90 -4 -102 -4 -20 -1 -23 -6 -23 -40 0 -67 -23 -82
-137 -90 -9 -1 -13 -42 -15 -153 l-3 -151 -50 -1 c-66 -2 -75 -9 -75 -60 0
-57 -17 -70 -90 -70 -75 0 -87 11 -86 74 1 27 -3 51 -9 52 -5 0 -99 2 -207 2
l-198 1 0 -131 0 -132 63 2 c34 1 68 0 75 -2 9 -3 12 -43 12 -153 l0 -149 -27
-1 c-16 -1 -41 -1 -57 -1 -49 1 -65 -14 -72 -69 -8 -59 -28 -77 -92 -80 -24
-2 -46 -8 -50 -13 -7 -12 -7 -20 -13 -263 -2 -84 -6 -153 -9 -153 -45 -4 -88
-15 -99 -26 -11 -10 -15 -46 -17 -145 l-2 -131 59 4 c32 2 61 7 65 11 4 3 7
30 8 59 0 29 4 55 8 58 3 3 101 5 217 4 l211 0 1 45 c3 117 -4 131 -66 131
-50 0 -62 12 -63 62 -2 51 18 68 79 68 32 0 49 4 50 13 0 6 1 75 1 152 l1 141
151 0 151 -1 3 66 3 66 217 1 218 0 0 -54 c0 -30 6 -60 12 -66 14 -14 87 -14
105 0 7 6 14 30 16 54 3 56 13 66 67 64 53 -2 61 -12 62 -72 1 -25 3 -48 6
-52 3 -5 268 -8 296 -3 3 1 6 29 6 64 l0 62 152 1 152 1 0 -153 0 -154 -153 0
-153 0 1 -62 0 -63 -154 -5 -155 -5 3 -62 2 -63 -53 -1 c-106 -1 -372 -10
-374 -12 -1 -1 -4 -29 -7 -62 -7 -70 -15 -94 -31 -96 -6 -1 -31 -2 -56 -3
l-45 -1 -3 -217 c-2 -164 -5 -218 -15 -219 -6 -1 -34 -2 -62 -3 l-50 -1 -5
-350 -5 -350 -85 1 -85 0 0 130 0 129 -67 3 -66 3 0 149 c1 99 5 150 12 153 6
2 35 3 64 2 28 0 52 1 53 5 6 35 2 423 -5 427 -5 4 -30 5 -55 4 -54 -1 -71
-19 -71 -72 0 -34 -17 -62 -36 -58 -5 1 -28 1 -51 0 l-42 -1 -3 -152 -3 -152
-73 -2 c-41 -1 -78 -6 -84 -12 -6 -6 -11 -34 -12 -64 l-1 -53 -130 0 -130 0
-1 58 c0 31 2 61 5 65 3 4 62 8 131 7 l125 0 0 66 0 66 -123 -1 c-68 0 -127 1
-131 4 -4 3 -7 69 -7 148 0 94 -4 146 -11 150 -6 4 -41 5 -77 4 l-66 -4 0
-283 0 -284 70 3 c41 1 74 -3 78 -9 5 -5 7 -137 7 -292 -1 -190 2 -284 9 -286
6 -2 43 -5 81 -6 86 -3 177 -9 180 -13 3 -2 12 -363 14 -540 l1 -36 52 0 c109
0 98 17 98 -142 l0 -140 33 -1 c42 -1 91 2 96 6 3 3 4 234 2 270 -1 6 -28 9
-66 7 l-65 -3 1 156 0 156 66 -3 65 -3 2 -150 1 -150 59 -6 c63 -7 86 -24 86
-64 0 -39 25 -61 74 -64 67 -3 86 11 86 62 0 23 4 47 8 54 4 7 33 13 65 14
l57 2 0 154 0 153 58 0 c76 0 91 -12 95 -78 2 -29 9 -58 15 -64 6 -6 32 -12
58 -13 62 -3 82 16 80 79 -1 40 2 46 19 47 11 0 36 2 55 4 19 1 103 6 187 10
176 8 172 11 176 -98 l2 -64 129 1 130 1 3 40 c9 108 15 120 74 129 59 9 69
16 80 62 14 53 22 61 79 69 55 8 71 22 72 66 1 57 13 69 69 69 55 0 58 -3 63
-69 4 -51 16 -61 78 -61 61 0 80 -19 74 -71 -7 -56 -11 -59 -72 -59 -52 0 -54
-1 -55 -27 -1 -16 -2 -48 -4 -73 -2 -25 -6 -108 -9 -185 -9 -198 -17 -319 -22
-324 -3 -3 -27 -5 -54 -6 -27 -1 -53 -5 -57 -9 -4 -4 -8 -30 -9 -57 -1 -28 -5
-53 -8 -57 -4 -3 -98 -7 -209 -8 -177 -1 -237 -5 -297 -19 -8 -2 -18 -4 -22
-4 -4 -1 -15 -12 -24 -26 -18 -27 -12 -60 14 -70 26 -10 181 -19 337 -19 167
1 194 9 210 68 12 42 37 66 70 66 37 0 55 22 58 69 3 56 22 69 104 73 l63 3 1
90 c0 50 2 142 4 205 2 63 3 152 4 197 l1 81 43 7 c23 4 51 9 62 11 11 3 90 7
176 11 l156 6 -1 -297 -1 -296 30 -1 c52 -1 75 -5 85 -15 18 -18 31 -117 37
-282 l6 -162 -177 -1 c-97 -1 -185 -3 -196 -4 -11 -1 -29 -3 -40 -4 -24 -1
-36 -41 -21 -69 11 -21 35 -27 146 -37 138 -13 382 -22 389 -14 2 2 6 96 9
208 3 112 9 206 12 209 3 3 61 7 128 9 67 1 195 4 285 6 l162 4 0 -286 0 -286
-75 1 c-41 0 -75 -2 -76 -5 -1 -3 -2 -100 -3 -216 l-1 -210 -57 -10 c-69 -12
-80 -22 -93 -83 -10 -48 -29 -65 -87 -77 -23 -4 -28 -12 -33 -48 -7 -45 -13
-128 -14 -189 l-1 -38 -75 0 -74 0 -3 -152 -3 -153 -53 -1 c-30 -1 -58 -6 -64
-12 -5 -5 -10 -33 -11 -63 l-2 -54 -502 0 -503 0 0 57 c0 31 -4 59 -9 62 -4 3
-34 8 -65 10 -72 7 -76 10 -76 52 0 20 -5 44 -10 54 -12 22 -53 31 -202 45
l-76 7 1 65 c1 77 -5 83 -89 83 l-61 0 -1 43 c-2 72 -12 191 -18 209 -5 18
-15 21 -86 33 -41 6 -44 13 -51 94 -5 52 -17 61 -82 61 l-51 0 2 140 c1 77 -2
140 -5 141 -3 0 -37 1 -76 2 l-70 2 -1 75 c-2 109 -14 254 -24 291 -12 42 -24
49 -82 49 l-48 0 0 -438 0 -438 -93 -1 c-152 -1 -165 -2 -181 -19 -9 -8 -16
-28 -16 -43 0 -46 -41 -66 -137 -70 -9 -1 -12 -38 -11 -146 0 -80 -2 -148 -6
-152 -3 -3 -29 -7 -57 -7 -58 -2 -69 -13 -69 -73 0 -50 -7 -55 -74 -58 -28 -2
-54 -3 -57 -4 -9 -1 -20 -29 -25 -61 -10 -62 -15 -70 -42 -75 -109 -23 -104
-17 -105 -117 l-1 -48 -218 0 c-201 0 -218 -1 -219 -17 -1 -10 -2 -40 -3 -67
l-1 -50 -217 1 -218 0 0 -219 0 -218 1160 0 1160 0 -1 140 c0 77 -1 140 -2
141 -1 0 -24 3 -52 6 -68 7 -83 17 -95 66 -13 47 -33 67 -67 67 -34 0 -63 34
-63 75 0 51 -28 75 -89 75 -27 0 -53 6 -58 13 -5 6 -11 35 -12 62 -3 59 -15
74 -65 80 -39 5 -75 21 -77 33 -8 76 -33 102 -100 102 -23 0 -29 5 -30 23 -1
12 -3 78 -5 147 -2 69 -5 160 -7 202 -3 65 -1 78 12 79 32 1 157 11 176 14 11
1 27 3 36 4 43 3 59 33 74 141 16 116 24 129 81 125 47 -3 54 -12 58 -75 5
-66 20 -79 87 -76 27 2 53 -2 58 -8 5 -6 11 -62 14 -125 6 -120 13 -137 56
-146 40 -8 61 -16 62 -26 1 -5 3 -13 4 -19 1 -5 3 -27 4 -47 2 -54 10 -61 73
-66 31 -3 61 -8 66 -11 6 -3 13 -24 17 -45 10 -61 14 -63 185 -76 41 -3 78 -9
83 -14 5 -5 13 -31 18 -57 12 -62 20 -70 79 -78 57 -8 64 -17 75 -93 7 -51 8
-53 38 -54 18 0 247 -3 509 -6 l477 -5 0 56 c0 83 6 96 49 97 40 1 65 -1 71
-6 2 -2 5 -23 6 -47 3 -47 16 -242 20 -323 2 -27 4 -116 4 -197 l1 -148 940 0
940 0 0 53 c0 29 -5 58 -12 65 -7 7 -32 12 -56 12 -72 0 -82 11 -82 85 0 36
-3 65 -7 66 -5 0 -37 3 -73 5 -189 11 -200 15 -200 76 0 37 -1 40 -10 59 -9
16 -9 16 -308 24 -57 1 -105 5 -108 8 -6 6 -13 43 -16 84 l-2 33 -296 0 -295
0 1 75 c1 62 -2 75 -15 75 -63 2 -238 12 -247 15 -8 2 -11 69 -11 219 1 211 1
216 21 217 58 3 92 10 103 22 11 11 19 61 28 187 4 58 21 80 60 80 38 0 55 22
61 80 3 30 9 60 15 66 5 6 35 12 66 13 32 1 61 5 65 9 3 4 9 97 12 206 3 110
9 203 13 207 5 4 34 9 66 11 33 2 61 7 64 12 14 22 2 528 -15 641 l-7 50 -200
1 c-345 2 -466 14 -487 47 -4 7 -8 33 -8 58 0 26 -6 51 -13 57 -7 6 -41 12
-76 14 l-63 3 0 200 c0 110 1 208 1 217 1 16 17 18 153 20 l151 3 1 53 c2 60
12 72 66 72 54 0 63 11 64 74 l0 56 283 0 c156 0 283 -3 284 -7 0 -5 2 -28 3
-53 2 -49 11 -71 29 -69 31 4 94 -2 106 -10 17 -11 23 -78 9 -103 -7 -15 -22
-18 -76 -18 l-68 0 1 -217 0 -218 -57 -3 c-68 -4 -81 -19 -76 -85 5 -58 13
-67 61 -67 59 0 67 9 72 73 2 31 6 61 10 67 3 5 35 10 70 10 76 0 72 -8 79
150 5 116 12 129 73 131 18 1 38 3 43 4 6 1 15 3 20 4 6 1 10 128 10 360 l0
359 135 -1 c74 0 137 2 140 5 6 6 13 46 14 80 1 37 23 56 74 63 63 10 68 16
74 81 3 33 9 63 13 68 4 4 32 9 62 10 l53 2 0 129 0 130 -58 2 c-44 2 -59 -2
-64 -13 -3 -9 -6 -68 -7 -132 l-1 -117 -217 0 -218 0 0 130 0 131 39 2 c21 2
53 4 70 7 17 2 66 7 109 10 42 4 80 10 83 14 4 3 4 34 2 69 l-5 62 -42 1 c-70
1 -319 10 -351 12 -27 2 -30 6 -33 41 -6 67 4 86 43 86 18 0 45 4 59 10 23 8
26 15 26 54 0 52 14 67 68 70 59 4 62 9 62 96 l0 78 88 -1 87 -2 1 -73 c1 -40
6 -78 12 -84 7 -7 31 -13 54 -14 50 -3 68 -22 68 -75 0 -43 18 -61 57 -59 78
5 73 16 73 -140 l0 -140 75 0 75 0 0 203 c1 502 -1 791 -5 796 -3 3 -22 6 -43
8 -58 4 -79 11 -86 29 -4 9 -9 65 -12 123 -3 58 -7 112 -9 119 -3 9 -56 12
-219 12 l-215 0 -3 152 -3 152 -95 4 c-150 5 -163 10 -175 60 -6 23 -16 47
-22 53 -8 8 -55 13 -125 15 -62 1 -121 3 -130 3 -13 1 -16 12 -17 63 0 37 -5
66 -13 74 -11 10 -66 21 -115 23 -10 1 -13 52 -13 220 l0 218 57 7 c71 8 83
18 83 70 0 55 -13 66 -75 66 -28 0 -56 -5 -63 -12z m-311 -427 c12 -1 15 -11
14 -47 -2 -53 21 -83 64 -85 14 0 35 -2 46 -4 11 -3 51 -7 90 -11 38 -3 73 -8
77 -11 5 -2 8 -37 8 -76 l0 -72 -132 0 c-73 1 -138 4 -144 7 -6 4 -10 40 -9
87 l1 81 -153 0 -153 0 0 63 c0 35 2 66 4 68 4 3 223 3 287 0z m877 -603 c7
-7 12 -35 12 -64 0 -60 11 -72 65 -75 54 -3 65 -14 65 -64 0 -23 6 -47 13 -53
6 -6 42 -12 80 -15 37 -2 70 -6 73 -9 12 -12 11 -88 -1 -104 -10 -14 -26 -17
-80 -16 -37 1 -70 4 -73 7 -3 3 -8 32 -10 65 l-4 59 -129 -2 -128 -2 -3 40
c-2 22 -2 86 0 143 l3 102 53 0 c28 0 57 -5 64 -12z m-1608 -423 l0 -155 -130
0 -130 0 0 79 c0 48 4 83 11 87 6 3 32 8 57 11 54 5 62 13 62 70 0 50 12 59
81 62 l49 1 0 -155z m-260 -350 l0 -65 43 0 c98 0 517 -11 572 -15 191 -13
230 -17 233 -20 2 -2 4 -30 5 -63 1 -33 5 -64 9 -68 4 -4 35 -8 68 -9 34 -2
64 -6 68 -9 3 -4 7 -59 8 -122 1 -63 4 -117 6 -120 3 -3 29 -9 58 -13 59 -9
69 -20 71 -73 3 -84 14 -92 134 -101 l30 -2 3 -350 2 -350 -227 -1 c-365 -2
-637 -7 -650 -12 -7 -2 -13 -20 -13 -41 0 -83 -16 -95 -135 -107 -123 -12
-328 -6 -403 13 -28 7 -42 39 -42 94 0 21 -3 40 -7 40 -51 10 -754 14 -863 5
-121 -10 -150 -20 -150 -56 0 -58 -15 -77 -70 -89 -29 -6 -94 -14 -145 -17
l-94 -6 5 444 c3 243 6 443 7 444 1 1 31 4 66 8 36 3 67 10 70 15 4 5 6 68 6
140 l-1 131 31 1 c16 0 80 0 142 0 l111 -1 0 51 c1 77 6 80 167 95 39 4 79 8
90 9 11 1 27 3 35 4 13 1 16 15 16 74 l-1 72 95 2 c52 1 116 2 143 2 l47 1 0
65 0 65 230 0 230 0 0 -65z"/>
<path d="M1473 5109 c-25 -9 -28 -33 -28 -184 l0 -110 88 -2 89 -1 -7 125 c-7
130 -16 172 -37 174 -71 5 -87 5 -105 -2z"/>
<path d="M2069 3193 c-13 -3 -15 -22 -13 -119 2 -71 7 -121 15 -130 24 -29 83
-11 92 28 21 84 26 193 10 209 -11 11 -74 18 -104 12z"/>
<path d="M2220 2891 c-15 -29 -13 -241 3 -242 33 -4 214 2 230 7 12 4 17 16
17 44 0 21 -5 42 -11 46 -6 3 -36 8 -67 10 -63 5 -72 13 -72 66 0 64 -15 88
-54 88 -25 0 -38 -6 -46 -19z"/>
<path d="M1339 2752 c-25 -5 -39 -80 -21 -109 11 -17 87 -24 107 -9 18 13 23
92 7 108 -12 12 -62 17 -93 10z"/>
<path d="M1493 2622 c-23 -3 -28 -19 -25 -81 2 -35 14 -43 72 -47 68 -3 80
-15 80 -78 0 -61 12 -76 58 -76 58 0 72 14 72 73 0 29 -4 58 -9 65 -4 7 -29
14 -55 16 -57 3 -70 15 -68 63 1 21 -2 44 -6 50 -8 13 -80 22 -119 15z"/>
<path d="M3817 1900 c-10 -4 -14 -83 -8 -142 1 -5 60 -8 131 -8 l130 0 0 78 0
77 -120 0 c-67 0 -126 -2 -133 -5z"/>
<path d="M3530 109 c-11 -20 -9 -77 4 -98 9 -15 69 -14 84 1 16 16 16 90 0
106 -20 20 -76 15 -88 -9z"/>
</g>
</svg>
